<?xml version="1.0" standalone="no"?>
<!DOCTYPE svg PUBLIC "-//W3C//DTD SVG 20010904//EN"
 "http://www.w3.org/TR/2001/REC-SVG-20010904/DTD/svg10.dtd">
<svg version="1.0" xmlns="http://www.w3.org/2000/svg"
 width="51.000000pt" height="51.000000pt" viewBox="0 0 51.000000 51.000000"
 preserveAspectRatio="xMidYMid meet">

<g transform="translate(0.000000,51.000000) scale(0.100000,-0.100000)"
fill="#000000" stroke="none">
<path d="M140 445 c0 -13 22 -15 162 -13 118 2 162 6 166 16 5 17 -174 17
-181 0 -4 -10 -6 -10 -6 0 -1 6 -7 12 -15 12 -8 0 -17 -6 -19 -12 -4 -10 -6
-10 -6 0 -1 6 -7 12 -15 12 -8 0 -17 -6 -19 -12 -4 -10 -6 -10 -6 0 -1 6 -7
12 -15 12 -8 0 -17 -6 -19 -12 -4 -10 -6 -10 -6 0 -1 18 -21 15 -21 -3z"/>
<path d="M105 420 c-3 -5 -1 -10 6 -10 7 0 10 -13 7 -35 -2 -19 0 -35 4 -35 4
0 8 20 8 45 0 42 -11 58 -25 35z"/>
<path d="M477 423 c-4 -3 -7 -44 -7 -90 0 -67 3 -83 15 -83 12 0 15 17 15 90
0 83 -5 101 -23 83z"/>
<path d="M51 396 c-9 -11 -10 -20 -1 -36 13 -24 38 -23 53 1 23 37 -25 68 -52
35z"/>
<path d="M19 314 c-18 -22 -26 -128 -8 -122 7 2 14 21 16 42 2 44 13 62 13 23
0 -22 5 -27 25 -27 14 0 34 9 45 20 l20 20 0 -40 c0 -22 5 -40 10 -40 13 0 13
96 0 121 -13 24 -36 25 -49 2 -10 -17 -12 -17 -25 0 -16 21 -30 22 -47 1z"/>
<path d="M175 260 c-17 -7 -17 -9 -2 -9 11 -1 17 -9 17 -26 0 -25 3 -27 40
-27 37 0 40 2 40 27 0 21 5 25 30 25 25 0 30 -4 30 -25 0 -25 3 -27 40 -27 37
0 40 2 40 27 0 20 5 25 27 25 14 0 23 3 20 7 -10 9 -259 12 -282 3z m83 -32
c-6 -17 -50 -17 -55 0 -3 8 6 12 27 12 21 0 30 -4 28 -12z m140 0 c-3 -7 -15
-13 -28 -13 -13 0 -25 6 -27 13 -3 8 6 12 27 12 21 0 30 -4 28 -12z"/>
<path d="M74 204 c3 -9 6 -47 6 -85 0 -62 2 -69 20 -69 18 0 20 7 20 85 0 85
0 85 -26 85 -20 0 -25 -4 -20 -16z"/>
<path d="M211 168 c-13 -21 -13 -22 2 -9 11 8 22 10 30 4 6 -5 30 -6 52 -2
l40 7 -44 -1 c-27 -1 -46 3 -49 11 -6 18 -15 15 -31 -10z"/>
<path d="M351 168 c-13 -21 -13 -22 2 -9 14 11 20 11 34 0 15 -13 15 -12 2 9
-8 12 -16 22 -19 22 -3 0 -11 -10 -19 -22z"/>
<path d="M40 115 c0 -51 3 -65 15 -65 12 0 15 14 15 65 0 51 -3 65 -15 65 -12
0 -15 -14 -15 -65z"/>
<path d="M143 163 c9 -2 25 -2 35 0 9 3 1 5 -18 5 -19 0 -27 -2 -17 -5z"/>
<path d="M433 163 c15 -2 39 -2 55 0 15 2 2 4 -28 4 -30 0 -43 -2 -27 -4z"/>
</g>
</svg>
