<?xml version="1.0" standalone="no"?>
<!DOCTYPE svg PUBLIC "-//W3C//DTD SVG 20010904//EN"
 "http://www.w3.org/TR/2001/REC-SVG-20010904/DTD/svg10.dtd">
<svg version="1.0" xmlns="http://www.w3.org/2000/svg"
 width="50.000000pt" height="50.000000pt" viewBox="0 0 50.000000 50.000000"
 preserveAspectRatio="xMidYMid meet">

<g transform="translate(0.000000,50.000000) scale(0.100000,-0.100000)"
fill="#000000" stroke="none">
<path d="M70 250 l0 -230 55 0 55 0 0 53 c0 28 4 57 8 63 14 21 51 34 96 34
25 0 46 4 46 8 0 12 47 32 75 32 24 0 25 2 25 73 l0 73 -63 62 -63 62 -117 0
-117 0 0 -230z m285 150 l49 -50 -52 0 -52 0 0 50 c0 28 1 50 3 50 1 0 25 -22
52 -50z m-140 -16 c14 -15 25 -31 25 -35 0 -15 -18 -10 -24 7 -8 21 -51 14
-51 -9 0 -10 17 -27 40 -40 51 -29 55 -55 15 -91 l-31 -27 -30 30 c-28 30 -37
51 -21 51 4 0 13 -9 20 -20 14 -23 44 -26 62 -5 16 19 6 32 -38 53 -45 21 -51
48 -20 84 13 15 24 27 26 27 2 1 14 -11 27 -25z"/>
<path d="M363 180 c-13 -5 -23 -16 -23 -23 0 -11 -10 -13 -42 -10 -24 3 -55 0
-70 -6 -26 -10 -28 -15 -28 -66 0 -69 6 -72 150 -72 150 0 150 0 150 92 0 72
-1 76 -26 85 -31 12 -81 12 -111 0z m105 -19 c11 -7 10 -10 -3 -15 -21 -8 -69
-8 -90 0 -25 10 2 24 45 24 19 0 41 -4 48 -9z m-140 -40 c11 -7 10 -10 -3 -15
-21 -8 -69 -8 -90 0 -25 10 2 24 45 24 19 0 41 -4 48 -9z m152 -2 c0 -17 -72
-25 -104 -13 -31 12 -15 19 44 19 33 0 60 -3 60 -6z m-140 -40 c0 -17 -72 -25
-104 -13 -31 12 -15 19 44 19 33 0 60 -3 60 -6z m140 0 c0 -17 -72 -25 -104
-13 -31 12 -15 19 44 19 33 0 60 -3 60 -6z m-140 -40 c0 -17 -72 -25 -104 -13
-31 12 -15 19 44 19 33 0 60 -3 60 -6z m140 0 c0 -17 -72 -25 -104 -13 -31 12
-15 19 44 19 33 0 60 -3 60 -6z"/>
</g>
</svg>
