<?xml version="1.0" standalone="no"?>
<!DOCTYPE svg PUBLIC "-//W3C//DTD SVG 20010904//EN"
 "http://www.w3.org/TR/2001/REC-SVG-20010904/DTD/svg10.dtd">
<svg version="1.0" xmlns="http://www.w3.org/2000/svg"
 width="50.000000pt" height="50.000000pt" viewBox="0 0 50.000000 50.000000"
 preserveAspectRatio="xMidYMid meet">

<g transform="translate(0.000000,50.000000) scale(0.100000,-0.100000)"
fill="#000000" stroke="none">
<path d="M92 482 c-127 -46 -120 -109 16 -148 137 -40 348 25 306 94 -36 61
-217 91 -322 54z"/>
<path d="M0 324 c0 -82 177 -130 321 -88 68 20 99 48 99 89 l0 32 -52 -26
c-47 -23 -65 -26 -158 -26 -93 0 -111 3 -158 26 l-52 26 0 -33z"/>
<path d="M0 225 c0 -35 15 -52 70 -81 27 -14 58 -18 132 -19 61 0 97 -4 95
-10 -2 -6 -44 -10 -99 -9 -81 0 -103 4 -147 26 l-51 25 0 -33 c0 -66 107 -111
245 -101 58 4 87 2 105 -8 32 -18 64 -19 99 -1 37 20 70 96 41 96 -5 0 -10 -9
-10 -20 0 -32 -44 -70 -80 -70 -19 0 -40 9 -55 25 -65 64 18 175 91 120 17
-13 17 -14 2 -15 -34 0 -18 -20 17 -20 33 0 35 2 35 35 0 19 -4 35 -10 35 -5
0 -10 -7 -10 -15 0 -14 -3 -13 -25 1 -17 11 -25 26 -25 44 l0 27 -52 -26 c-47
-23 -65 -26 -158 -26 -93 0 -111 3 -158 26 l-52 26 0 -32z"/>
</g>
</svg>
