<?xml version="1.0" standalone="no"?>
<!DOCTYPE svg PUBLIC "-//W3C//DTD SVG 20010904//EN"
 "http://www.w3.org/TR/2001/REC-SVG-20010904/DTD/svg10.dtd">
<svg version="1.0" xmlns="http://www.w3.org/2000/svg"
 width="64.000000pt" height="64.000000pt" viewBox="0 0 64.000000 64.000000"
 preserveAspectRatio="xMidYMid meet">

<g transform="translate(0.000000,64.000000) scale(0.100000,-0.100000)"
fill="#000000" stroke="none">
<path d="M144 515 c-15 -23 -15 -27 0 -50 30 -46 96 -26 96 29 0 46 -69 61
-96 21z"/>
<path d="M292 511 c-8 -5 -12 -17 -10 -27 3 -17 15 -19 101 -22 l98 -3 -3 -82
-3 -82 -93 -3 c-90 -3 -93 -4 -90 -25 3 -21 8 -22 104 -25 135 -4 134 -4 134
138 0 137 -3 140 -135 140 -49 0 -96 -4 -103 -9z"/>
<path d="M145 406 c-14 -10 -20 -30 -23 -78 -5 -78 6 -90 75 -86 46 3 48 4 51
36 2 18 8 30 13 26 10 -6 79 32 91 50 4 6 1 18 -8 26 -13 13 -18 13 -43 -1
-26 -15 -29 -15 -59 12 -35 32 -68 37 -97 15z"/>
<path d="M157 192 c-22 -24 -21 -45 1 -65 35 -32 92 -11 92 33 0 45 -62 66
-93 32z"/>
<path d="M282 198 c-15 -15 -15 -61 0 -76 15 -15 61 -15 76 0 7 7 12 24 12 38
0 33 -17 50 -50 50 -14 0 -31 -5 -38 -12z"/>
<path d="M406 194 c-32 -32 -8 -84 38 -84 25 0 56 28 56 52 0 21 -32 48 -58
48 -11 0 -28 -7 -36 -16z"/>
</g>
</svg>
